<svg xmlns="http://www.w3.org/2000/svg" xmlns:xlink="http://www.w3.org/1999/xlink" aria-hidden="true" aria-labelledby="title" preserveAspectRatio="xMidYMid meet" width="72" height="72" viewBox="0 0 72 72" style="width:100%;height:100%"><title id="title">Loading</title><defs><animate repeatCount="indefinite" dur="4.6833333s" begin="0s" xlink:href="#_R_G_L_24_G" fill="freeze" attributeName="opacity" from="1" to="1" keyTimes="0;0.3451957;0.4341637;0.5338078;0.6192171;1" values="1;1;0.2;0.2;1;1" keySplines="0.333 0 0.667 1;0.333 0 0.667 1;0.333 0 0.667 1;0.333 0 0.667 1;0 0 0 0" calcMode="spline"/><animate repeatCount="indefinite" dur="4.6833333s" begin="0s" xlink:href="#_R_G_L_23_G" fill="freeze" attributeName="opacity" from="0.2" to="0.2" keyTimes="0;0.0498221;0.13879;0.7117438;0.8007117;1" values="0.2;0.2;1;1;0.2;0.2" keySplines="0.333 0 0.667 1;0.333 0 0.667 1;0.333 0 0.667 1;0.333 0 0.667 1;0.333 0 0.667 1" calcMode="spline"/><animate repeatCount="indefinite" dur="4.6833333s" begin="0s" xlink:href="#_R_G_L_22_G" fill="freeze" attributeName="opacity" from="1" to="1" keyTimes="0;0.202847;0.2918149;0.9145907;1" values="1;1;0.2;0.2;1" keySplines="0.333 0 0.667 1;0.333 0 0.667 1;0.333 0 0.667 1;0.333 0 0.667 1" calcMode="spline"/><animate repeatCount="indefinite" dur="4.6833333s" begin="0s" xlink:href="#_R_G_L_21_G" fill="freeze" attributeName="opacity" from="0.2" to="0.2" keyTimes="0;0.0996441;0.1850534;0.5338078;0.6227758;1" values="0.2;0.2;1;1;0.2;0.2" keySplines="0.333 0 0.667 1;0.333 0 0.667 1;0.333 0 0.667 1;0.333 0 0.667 1;0.333 0 0.667 1" calcMode="spline"/><animate repeatCount="indefinite" dur="4.6833333s" begin="0s" xlink:href="#_R_G_L_20_G" fill="freeze" attributeName="opacity" from="1" to="1" keyTimes="0;0.2989324;0.3879004;0.5017794;0.5871886;1" values="1;1;0.2;0.2;1;1" keySplines="0.333 0 0.667 1;0.333 0 0.667 1;0.333 0 0.667 1;0.333 0 0.667 1;0 0 0 0" calcMode="spline"/><animate repeatCount="indefinite" dur="4.6833333s" begin="0s" xlink:href="#_R_G_L_19_G" fill="freeze" attributeName="opacity" from="1" to="1" keyTimes="0;0.0391459;0.1281139;0.7437722;0.8149466;1" values="1;1;0.2;0.2;1;1" keySplines="0.333 0 0.667 1;0.333 0 0.667 1;0.333 0 0.667 1;0.333 0 0.667 1;0 0 0 0" calcMode="spline"/><animate repeatCount="indefinite" dur="4.6833333s" begin="0s" xlink:href="#_R_G_L_18_G" fill="freeze" attributeName="opacity" from="0.2" to="0.2" keyTimes="0;0.1637011;0.2491103;0.5978648;0.6868327;1" values="0.2;0.2;1;1;0.2;0.2" keySplines="0.333 0 0.667 1;0.333 0 0.667 1;0.333 0 0.667 1;0.333 0 0.667 1;0.333 0 0.667 1" calcMode="spline"/><animate repeatCount="indefinite" dur="4.6833333s" begin="0s" xlink:href="#_R_G_L_17_G" fill="freeze" attributeName="opacity" from="1" to="1" keyTimes="0;0.0106762;0.0996441;0.4875445;0.5729537;1" values="1;1;0.2;0.2;1;1" keySplines="0.333 0 0.667 1;0.333 0 0.667 1;0.333 0 0.667 1;0.333 0 0.667 1;0 0 0 0" calcMode="spline"/><animate repeatCount="indefinite" dur="4.6833333s" begin="0s" xlink:href="#_R_G_L_16_G" fill="freeze" attributeName="opacity" from="0.2" to="0.2" keyTimes="0;0.0960854;0.1814947;0.7615658;0.8505338;1" values="0.2;0.2;1;1;0.2;0.2" keySplines="0.333 0 0.667 1;0.333 0 0.667 1;0.333 0 0.667 1;0.333 0 0.667 1;0.333 0 0.667 1" calcMode="spline"/><animate repeatCount="indefinite" dur="4.6833333s" begin="0s" xlink:href="#_R_G_L_15_G" fill="freeze" attributeName="opacity" from="1" to="1" keyTimes="0;0.024911;0.113879;0.455516;0.5409253;1" values="1;1;0.2;0.2;1;1" keySplines="0.333 0 0.667 1;0.333 0 0.667 1;0.333 0 0.667 1;0.333 0 0.667 1;0 0 0 0" calcMode="spline"/><animate repeatCount="indefinite" dur="4.6833333s" begin="0s" xlink:href="#_R_G_L_14_G" fill="freeze" attributeName="opacity" from="0.2" to="0.2" keyTimes="0;0.1886121;0.2740214;0.544484;0.633452;1" values="0.2;0.2;1;1;0.2;0.2" keySplines="0.333 0 0.667 1;0.333 0 0.667 1;0.333 0 0.667 1;0.333 0 0.667 1;0.333 0 0.667 1" calcMode="spline"/><animate repeatCount="indefinite" dur="4.6833333s" begin="0s" xlink:href="#_R_G_L_13_G" fill="freeze" attributeName="opacity" from="1" to="1" keyTimes="0;0.0391459;0.1281139;0.6761566;0.7686833;1" values="1;1;0.2;0.2;1;1" keySplines="0.333 0 0.667 1;0.333 0 0.667 1;0.333 0 0.667 1;0.333 0 0.667 1;0 0 0 0" calcMode="spline"/><animate repeatCount="indefinite" dur="4.6833333s" begin="0s" xlink:href="#_R_G_L_12_G" fill="freeze" attributeName="opacity" from="0.2" to="0.2" keyTimes="0;0.0071174;0.0818505;0.7651246;0.8540925;1" values="0.2;0.2;1;1;0.2;0.2" keySplines="0.333 0 0.667 1;0.333 0 0.667 1;0.333 0 0.667 1;0.333 0 0.667 1;0.333 0 0.667 1" calcMode="spline"/><animate repeatCount="indefinite" dur="4.6833333s" begin="0s" xlink:href="#_R_G_L_11_G" fill="freeze" attributeName="opacity" from="1" to="1" keyTimes="0;0.2455516;0.3345196;0.8576512;0.9501779;1" values="1;1;0.2;0.2;1;1" keySplines="0.333 0 0.667 1;0.333 0 0.667 1;0.333 0 0.667 1;0.333 0 0.667 1;0 0 0 0" calcMode="spline"/><animate repeatCount="indefinite" dur="4.6833333s" begin="0s" xlink:href="#_R_G_L_10_G" fill="freeze" attributeName="opacity" from="0.2" to="0.2" keyTimes="0;0.113879;0.2064057;0.6085409;0.6975089;1" values="0.2;0.2;1;1;0.2;0.2" keySplines="0.333 0 0.667 1;0.333 0 0.667 1;0.333 0 0.667 1;0.333 0 0.667 1;0.333 0 0.667 1" calcMode="spline"/><animate repeatCount="indefinite" dur="4.6833333s" begin="0s" xlink:href="#_R_G_L_9_G" fill="freeze" attributeName="opacity" from="0.2" to="0.2" keyTimes="0;0.3807829;0.4661922;0.6298932;0.7188612;1" values="0.2;0.2;1;1;0.2;0.2" keySplines="0.333 0 0.667 1;0.333 0 0.667 1;0.333 0 0.667 1;0.333 0 0.667 1;0.333 0 0.667 1" calcMode="spline"/><animate repeatCount="indefinite" dur="4.6833333s" begin="0s" xlink:href="#_R_G_L_7_G" fill="freeze" attributeName="opacity" from="0.2" to="0.2" keyTimes="0;0.2135231;0.2989324;0.6405694;0.7295374;1" values="0.2;0.2;1;1;0.2;0.2" keySplines="0.333 0 0.667 1;0.333 0 0.667 1;0.333 0 0.667 1;0.333 0 0.667 1;0.333 0 0.667 1" calcMode="spline"/><animate repeatCount="indefinite" dur="4.6833333s" begin="0s" xlink:href="#_R_G_L_6_G" fill="freeze" attributeName="opacity" from="1" to="1" keyTimes="0;0.088968;0.569395;0.6548043;1" values="1;0.2;0.2;1;1" keySplines="0.333 0 0.667 1;0.333 0 0.667 1;0.333 0 0.667 1;0 0 0 0" calcMode="spline"/><animate repeatCount="indefinite" dur="4.6833333s" begin="0s" xlink:href="#_R_G_L_5_G" fill="freeze" attributeName="opacity" from="0.2" to="0.2" keyTimes="0;0.3701068;0.455516;0.7224199;0.8113879;1" values="0.2;0.2;1;1;0.2;0.2" keySplines="0.333 0 0.667 1;0.333 0 0.667 1;0.333 0 0.667 1;0.333 0 0.667 1;0.333 0 0.667 1" calcMode="spline"/><animate repeatCount="indefinite" dur="4.6833333s" begin="0s" xlink:href="#_R_G_L_4_G" fill="freeze" attributeName="opacity" from="1" to="1" keyTimes="0;0.1743772;0.2633452;0.7686833;0.8540925;1" values="1;1;0.2;0.2;1;1" keySplines="0.333 0 0.667 1;0.333 0 0.667 1;0.333 0 0.667 1;0.333 0 0.667 1;0 0 0 0" calcMode="spline"/><animate repeatCount="indefinite" dur="4.6833333s" begin="0s" xlink:href="#_R_G_L_3_G" fill="freeze" attributeName="opacity" from="0.2" to="0.2" keyTimes="0;0.0498221;0.1209964;0.5302491;0.6192171;1" values="0.2;0.2;1;1;0.2;0.2" keySplines="0.333 0 0.667 1;0.333 0 0.667 1;0.333 0 0.667 1;0.333 0 0.667 1;0.333 0 0.667 1" calcMode="spline"/><animate repeatCount="indefinite" dur="4.6833333s" begin="0s" xlink:href="#_R_G_L_2_G" fill="freeze" attributeName="opacity" from="1" to="1" keyTimes="0;0.2918149;0.3807829;0.8754448;0.9608541;1" values="1;1;0.2;0.2;1;1" keySplines="0.333 0 0.667 1;0.333 0 0.667 1;0.333 0 0.667 1;0.333 0 0.667 1;0 0 0 0" calcMode="spline"/><animate repeatCount="indefinite" dur="4.6833333s" begin="0s" xlink:href="#_R_G_L_1_G" fill="freeze" attributeName="opacity" from="0.2" to="0.2" keyTimes="0;0.1352313;0.2206406;0.6548043;0.7437722;1" values="0.2;0.2;1;1;0.2;0.2" keySplines="0.333 0 0.667 1;0.333 0 0.667 1;0.333 0 0.667 1;0.333 0 0.667 1;0.333 0 0.667 1" calcMode="spline"/><animate repeatCount="indefinite" dur="4.6833333s" begin="0s" xlink:href="#_R_G_L_0_G" fill="freeze" attributeName="opacity" from="1" to="1" keyTimes="0;0.0284698;0.1174377;0.5338078;0.6192171;1" values="1;1;0.2;0.2;1;1" keySplines="0.333 0 0.667 1;0.333 0 0.667 1;0.333 0 0.667 1;0.333 0 0.667 1;0 0 0 0" calcMode="spline"/><animate attributeType="XML" attributeName="opacity" dur="5s" from="0" to="1" xlink:href="#time_group"/></defs><g id="_R_G"><g id="_R_G_L_24_G" transform=" translate(36, 62.4) scale(0.55, 0.55) translate(0, 0)"><path id="_R_G_L_24_G_D_0_P_0" fill="#222222" fill-opacity="1" fill-rule="nonzero" d=" M11.01 -5.44 C9.7,-8.82 6.23,-11.04 1.84,-11.04 C-4.91,-11.04 -9.1,-6.6 -9.1,-0.5 C-9.1,6.1 -3.86,10.99 2.29,10.99 C5.47,10.99 9.4,9.98 12.17,5.6 C12.17,5.6 12.93,5.6 12.93,5.6 C12.43,7.26 11.32,9.53 10.36,10.94 C7.79,10.64 5.97,11.95 1.24,11.95 C-7.03,11.9 -12.93,7.01 -12.93,0.25 C-12.93,-6.85 -6.88,-11.95 1.59,-11.95 C6.68,-11.95 8.85,-10.48 10.11,-10.48 C10.56,-10.48 10.76,-10.58 10.81,-10.69 C10.81,-10.69 11.42,-10.69 11.42,-10.69 C11.42,-10.69 11.77,-5.39 11.77,-5.39 C11.82,-5.44 11.01,-5.44 11.01,-5.44z "/></g><g id="_R_G_L_23_G" transform=" translate(36, 49.2) scale(0.55, 0.55) translate(0, 0)"><path id="_R_G_L_23_G_D_0_P_0" fill="#222222" fill-opacity="1" fill-rule="nonzero" d=" M11.01 -5.44 C9.7,-8.82 6.23,-11.04 1.84,-11.04 C-4.91,-11.04 -9.1,-6.6 -9.1,-0.5 C-9.1,6.1 -3.86,10.99 2.29,10.99 C5.47,10.99 9.4,9.98 12.17,5.6 C12.17,5.6 12.93,5.6 12.93,5.6 C12.43,7.26 11.32,9.53 10.36,10.94 C7.79,10.64 5.97,11.95 1.24,11.95 C-7.03,11.9 -12.93,7.01 -12.93,0.25 C-12.93,-6.85 -6.88,-11.95 1.59,-11.95 C6.68,-11.95 8.85,-10.48 10.11,-10.48 C10.56,-10.48 10.76,-10.58 10.81,-10.69 C10.81,-10.69 11.42,-10.69 11.42,-10.69 C11.42,-10.69 11.77,-5.39 11.77,-5.39 C11.82,-5.44 11.01,-5.44 11.01,-5.44z "/></g><g id="_R_G_L_22_G" transform=" translate(36, 36) scale(0.55, 0.55) translate(0, 0)"><path id="_R_G_L_22_G_D_0_P_0" fill="#222222" fill-opacity="1" fill-rule="nonzero" d=" M11.01 -5.44 C9.7,-8.82 6.23,-11.04 1.84,-11.04 C-4.91,-11.04 -9.1,-6.6 -9.1,-0.5 C-9.1,6.1 -3.86,10.99 2.29,10.99 C5.47,10.99 9.4,9.98 12.17,5.6 C12.17,5.6 12.93,5.6 12.93,5.6 C12.43,7.26 11.32,9.53 10.36,10.94 C7.79,10.64 5.97,11.95 1.24,11.95 C-7.03,11.9 -12.93,7.01 -12.93,0.25 C-12.93,-6.85 -6.88,-11.95 1.59,-11.95 C6.68,-11.95 8.85,-10.48 10.11,-10.48 C10.56,-10.48 10.76,-10.58 10.81,-10.69 C10.81,-10.69 11.42,-10.69 11.42,-10.69 C11.42,-10.69 11.77,-5.39 11.77,-5.39 C11.82,-5.44 11.01,-5.44 11.01,-5.44z "/></g><g id="_R_G_L_21_G" transform=" translate(36, 22.8) scale(0.55, 0.55) translate(0, 0)"><path id="_R_G_L_21_G_D_0_P_0" fill="#222222" fill-opacity="1" fill-rule="nonzero" d=" M11.01 -5.44 C9.7,-8.82 6.23,-11.04 1.84,-11.04 C-4.91,-11.04 -9.1,-6.6 -9.1,-0.5 C-9.1,6.1 -3.86,10.99 2.29,10.99 C5.47,10.99 9.4,9.98 12.17,5.6 C12.17,5.6 12.93,5.6 12.93,5.6 C12.43,7.26 11.32,9.53 10.36,10.94 C7.79,10.64 5.97,11.95 1.24,11.95 C-7.03,11.9 -12.93,7.01 -12.93,0.25 C-12.93,-6.85 -6.88,-11.95 1.59,-11.95 C6.68,-11.95 8.85,-10.48 10.11,-10.48 C10.56,-10.48 10.76,-10.58 10.81,-10.69 C10.81,-10.69 11.42,-10.69 11.42,-10.69 C11.42,-10.69 11.77,-5.39 11.77,-5.39 C11.82,-5.44 11.01,-5.44 11.01,-5.44z "/></g><g id="_R_G_L_20_G" transform=" translate(36, 9.6) scale(0.55, 0.55) translate(0, 0)"><path id="_R_G_L_20_G_D_0_P_0" fill="#222222" fill-opacity="1" fill-rule="nonzero" d=" M11.01 -5.44 C9.7,-8.82 6.23,-11.04 1.84,-11.04 C-4.91,-11.04 -9.1,-6.6 -9.1,-0.5 C-9.1,6.1 -3.86,10.99 2.29,10.99 C5.47,10.99 9.4,9.98 12.17,5.6 C12.17,5.6 12.93,5.6 12.93,5.6 C12.43,7.26 11.32,9.53 10.36,10.94 C7.79,10.64 5.97,11.95 1.24,11.95 C-7.03,11.9 -12.93,7.01 -12.93,0.25 C-12.93,-6.85 -6.88,-11.95 1.59,-11.95 C6.68,-11.95 8.85,-10.48 10.11,-10.48 C10.56,-10.48 10.76,-10.58 10.81,-10.69 C10.81,-10.69 11.42,-10.69 11.42,-10.69 C11.42,-10.69 11.77,-5.39 11.77,-5.39 C11.82,-5.44 11.01,-5.44 11.01,-5.44z "/></g><g id="_R_G_L_19_G" transform=" translate(64.6, 62.4) scale(0.55, 0.55) translate(0, 0)"><path id="_R_G_L_19_G_D_0_P_0" fill="#222222" fill-opacity="1" fill-rule="nonzero" d=" M11.01 -5.44 C9.7,-8.82 6.23,-11.04 1.84,-11.04 C-4.91,-11.04 -9.1,-6.6 -9.1,-0.5 C-9.1,6.1 -3.86,10.99 2.29,10.99 C5.47,10.99 9.4,9.98 12.17,5.6 C12.17,5.6 12.93,5.6 12.93,5.6 C12.43,7.26 11.32,9.53 10.36,10.94 C7.79,10.64 5.97,11.95 1.24,11.95 C-7.03,11.9 -12.93,7.01 -12.93,0.25 C-12.93,-6.85 -6.88,-11.95 1.59,-11.95 C6.68,-11.95 8.85,-10.48 10.11,-10.48 C10.56,-10.48 10.76,-10.58 10.81,-10.69 C10.81,-10.69 11.42,-10.69 11.42,-10.69 C11.42,-10.69 11.77,-5.39 11.77,-5.39 C11.82,-5.44 11.01,-5.44 11.01,-5.44z "/></g><g id="_R_G_L_18_G" transform=" translate(64.6, 49.2) scale(0.55, 0.55) translate(0, 0)"><path id="_R_G_L_18_G_D_0_P_0" fill="#222222" fill-opacity="1" fill-rule="nonzero" d=" M11.01 -5.44 C9.7,-8.82 6.23,-11.04 1.84,-11.04 C-4.91,-11.04 -9.1,-6.6 -9.1,-0.5 C-9.1,6.1 -3.86,10.99 2.29,10.99 C5.47,10.99 9.4,9.98 12.17,5.6 C12.17,5.6 12.93,5.6 12.93,5.6 C12.43,7.26 11.32,9.53 10.36,10.94 C7.79,10.64 5.97,11.95 1.24,11.95 C-7.03,11.9 -12.93,7.01 -12.93,0.25 C-12.93,-6.85 -6.88,-11.95 1.59,-11.95 C6.68,-11.95 8.85,-10.48 10.11,-10.48 C10.56,-10.48 10.76,-10.58 10.81,-10.69 C10.81,-10.69 11.42,-10.69 11.42,-10.69 C11.42,-10.69 11.77,-5.39 11.77,-5.39 C11.82,-5.44 11.01,-5.44 11.01,-5.44z "/></g><g id="_R_G_L_17_G" transform=" translate(64.6, 36) scale(0.55, 0.55) translate(0, 0)"><path id="_R_G_L_17_G_D_0_P_0" fill="#222222" fill-opacity="1" fill-rule="nonzero" d=" M11.01 -5.44 C9.7,-8.82 6.23,-11.04 1.84,-11.04 C-4.91,-11.04 -9.1,-6.6 -9.1,-0.5 C-9.1,6.1 -3.86,10.99 2.29,10.99 C5.47,10.99 9.4,9.98 12.17,5.6 C12.17,5.6 12.93,5.6 12.93,5.6 C12.43,7.26 11.32,9.53 10.36,10.94 C7.79,10.64 5.97,11.95 1.24,11.95 C-7.03,11.9 -12.93,7.01 -12.93,0.25 C-12.93,-6.85 -6.88,-11.95 1.59,-11.95 C6.68,-11.95 8.85,-10.48 10.11,-10.48 C10.56,-10.48 10.76,-10.58 10.81,-10.69 C10.81,-10.69 11.42,-10.69 11.42,-10.69 C11.42,-10.69 11.77,-5.39 11.77,-5.39 C11.82,-5.44 11.01,-5.44 11.01,-5.44z "/></g><g id="_R_G_L_16_G" transform=" translate(64.6, 22.8) scale(0.55, 0.55) translate(0, 0)"><path id="_R_G_L_16_G_D_0_P_0" fill="#222222" fill-opacity="1" fill-rule="nonzero" d=" M11.01 -5.44 C9.7,-8.82 6.23,-11.04 1.84,-11.04 C-4.91,-11.04 -9.1,-6.6 -9.1,-0.5 C-9.1,6.1 -3.86,10.99 2.29,10.99 C5.47,10.99 9.4,9.98 12.17,5.6 C12.17,5.6 12.93,5.6 12.93,5.6 C12.43,7.26 11.32,9.53 10.36,10.94 C7.79,10.64 5.97,11.95 1.24,11.95 C-7.03,11.9 -12.93,7.01 -12.93,0.25 C-12.93,-6.85 -6.88,-11.95 1.59,-11.95 C6.68,-11.95 8.85,-10.48 10.11,-10.48 C10.56,-10.48 10.76,-10.58 10.81,-10.69 C10.81,-10.69 11.42,-10.69 11.42,-10.69 C11.42,-10.69 11.77,-5.39 11.77,-5.39 C11.82,-5.44 11.01,-5.44 11.01,-5.44z "/></g><g id="_R_G_L_15_G" transform=" translate(64.6, 9.6) scale(0.55, 0.55) translate(0, 0)"><path id="_R_G_L_15_G_D_0_P_0" fill="#222222" fill-opacity="1" fill-rule="nonzero" d=" M11.01 -5.44 C9.7,-8.82 6.23,-11.04 1.84,-11.04 C-4.91,-11.04 -9.1,-6.6 -9.1,-0.5 C-9.1,6.1 -3.86,10.99 2.29,10.99 C5.47,10.99 9.4,9.98 12.17,5.6 C12.17,5.6 12.93,5.6 12.93,5.6 C12.43,7.26 11.32,9.53 10.36,10.94 C7.79,10.64 5.97,11.95 1.24,11.95 C-7.03,11.9 -12.93,7.01 -12.93,0.25 C-12.93,-6.85 -6.88,-11.95 1.59,-11.95 C6.68,-11.95 8.85,-10.48 10.11,-10.48 C10.56,-10.48 10.76,-10.58 10.81,-10.69 C10.81,-10.69 11.42,-10.69 11.42,-10.69 C11.42,-10.69 11.77,-5.39 11.77,-5.39 C11.82,-5.44 11.01,-5.44 11.01,-5.44z "/></g><g id="_R_G_L_14_G" transform=" translate(50.3, 62.4) scale(0.55, 0.55) translate(0, 0)"><path id="_R_G_L_14_G_D_0_P_0" fill="#222222" fill-opacity="1" fill-rule="nonzero" d=" M11.01 -5.44 C9.7,-8.82 6.23,-11.04 1.84,-11.04 C-4.91,-11.04 -9.1,-6.6 -9.1,-0.5 C-9.1,6.1 -3.86,10.99 2.29,10.99 C5.47,10.99 9.4,9.98 12.17,5.6 C12.17,5.6 12.93,5.6 12.93,5.6 C12.43,7.26 11.32,9.53 10.36,10.94 C7.79,10.64 5.97,11.95 1.24,11.95 C-7.03,11.9 -12.93,7.01 -12.93,0.25 C-12.93,-6.85 -6.88,-11.95 1.59,-11.95 C6.68,-11.95 8.85,-10.48 10.11,-10.48 C10.56,-10.48 10.76,-10.58 10.81,-10.69 C10.81,-10.69 11.42,-10.69 11.42,-10.69 C11.42,-10.69 11.77,-5.39 11.77,-5.39 C11.82,-5.44 11.01,-5.44 11.01,-5.44z "/></g><g id="_R_G_L_13_G" transform=" translate(50.3, 49.2) scale(0.55, 0.55) translate(0, 0)"><path id="_R_G_L_13_G_D_0_P_0" fill="#222222" fill-opacity="1" fill-rule="nonzero" d=" M11.01 -5.44 C9.7,-8.82 6.23,-11.04 1.84,-11.04 C-4.91,-11.04 -9.1,-6.6 -9.1,-0.5 C-9.1,6.1 -3.86,10.99 2.29,10.99 C5.47,10.99 9.4,9.98 12.17,5.6 C12.17,5.6 12.93,5.6 12.93,5.6 C12.43,7.26 11.32,9.53 10.36,10.94 C7.79,10.64 5.97,11.95 1.24,11.95 C-7.03,11.9 -12.93,7.01 -12.93,0.25 C-12.93,-6.85 -6.88,-11.95 1.59,-11.95 C6.68,-11.95 8.85,-10.48 10.11,-10.48 C10.56,-10.48 10.76,-10.58 10.81,-10.69 C10.81,-10.69 11.42,-10.69 11.42,-10.69 C11.42,-10.69 11.77,-5.39 11.77,-5.39 C11.82,-5.44 11.01,-5.44 11.01,-5.44z "/></g><g id="_R_G_L_12_G" transform=" translate(50.3, 36) scale(0.55, 0.55) translate(0, 0)"><path id="_R_G_L_12_G_D_0_P_0" fill="#222222" fill-opacity="1" fill-rule="nonzero" d=" M11.01 -5.44 C9.7,-8.82 6.23,-11.04 1.84,-11.04 C-4.91,-11.04 -9.1,-6.6 -9.1,-0.5 C-9.1,6.1 -3.86,10.99 2.29,10.99 C5.47,10.99 9.4,9.98 12.17,5.6 C12.17,5.6 12.93,5.6 12.93,5.6 C12.43,7.26 11.32,9.53 10.36,10.94 C7.79,10.64 5.97,11.95 1.24,11.95 C-7.03,11.9 -12.93,7.01 -12.93,0.25 C-12.93,-6.85 -6.88,-11.95 1.59,-11.95 C6.68,-11.95 8.85,-10.48 10.11,-10.48 C10.56,-10.48 10.76,-10.58 10.81,-10.69 C10.81,-10.69 11.42,-10.69 11.42,-10.69 C11.42,-10.69 11.77,-5.39 11.77,-5.39 C11.82,-5.44 11.01,-5.44 11.01,-5.44z "/></g><g id="_R_G_L_11_G" transform=" translate(50.3, 22.8) scale(0.55, 0.55) translate(0, 0)"><path id="_R_G_L_11_G_D_0_P_0" fill="#222222" fill-opacity="1" fill-rule="nonzero" d=" M11.01 -5.44 C9.7,-8.82 6.23,-11.04 1.84,-11.04 C-4.91,-11.04 -9.1,-6.6 -9.1,-0.5 C-9.1,6.1 -3.86,10.99 2.29,10.99 C5.47,10.99 9.4,9.98 12.17,5.6 C12.17,5.6 12.93,5.6 12.93,5.6 C12.43,7.26 11.32,9.53 10.36,10.94 C7.79,10.64 5.97,11.95 1.24,11.95 C-7.03,11.9 -12.93,7.01 -12.93,0.25 C-12.93,-6.85 -6.88,-11.95 1.59,-11.95 C6.68,-11.95 8.85,-10.48 10.11,-10.48 C10.56,-10.48 10.76,-10.58 10.81,-10.69 C10.81,-10.69 11.42,-10.69 11.42,-10.69 C11.42,-10.69 11.77,-5.39 11.77,-5.39 C11.82,-5.44 11.01,-5.44 11.01,-5.44z "/></g><g id="_R_G_L_10_G" transform=" translate(50.3, 9.6) scale(0.55, 0.55) translate(0, 0)"><path id="_R_G_L_10_G_D_0_P_0" fill="#222222" fill-opacity="1" fill-rule="nonzero" d=" M11.01 -5.44 C9.7,-8.82 6.23,-11.04 1.84,-11.04 C-4.91,-11.04 -9.1,-6.6 -9.1,-0.5 C-9.1,6.1 -3.86,10.99 2.29,10.99 C5.47,10.99 9.4,9.98 12.17,5.6 C12.17,5.6 12.93,5.6 12.93,5.6 C12.43,7.26 11.32,9.53 10.36,10.94 C7.79,10.64 5.97,11.95 1.24,11.95 C-7.03,11.9 -12.93,7.01 -12.93,0.25 C-12.93,-6.85 -6.88,-11.95 1.59,-11.95 C6.68,-11.95 8.85,-10.48 10.11,-10.48 C10.56,-10.48 10.76,-10.58 10.81,-10.69 C10.81,-10.69 11.42,-10.69 11.42,-10.69 C11.42,-10.69 11.77,-5.39 11.77,-5.39 C11.82,-5.44 11.01,-5.44 11.01,-5.44z "/></g><g id="_R_G_L_9_G" transform=" translate(21.7, 62.4) scale(0.55, 0.55) translate(0, 0)"><path id="_R_G_L_9_G_D_0_P_0" fill="#222222" fill-opacity="1" fill-rule="nonzero" d=" M11.01 -5.44 C9.7,-8.82 6.23,-11.04 1.84,-11.04 C-4.91,-11.04 -9.1,-6.6 -9.1,-0.5 C-9.1,6.1 -3.86,10.99 2.29,10.99 C5.47,10.99 9.4,9.98 12.17,5.6 C12.17,5.6 12.93,5.6 12.93,5.6 C12.43,7.26 11.32,9.53 10.36,10.94 C7.79,10.64 5.97,11.95 1.24,11.95 C-7.03,11.9 -12.93,7.01 -12.93,0.25 C-12.93,-6.85 -6.88,-11.95 1.59,-11.95 C6.68,-11.95 8.85,-10.48 10.11,-10.48 C10.56,-10.48 10.76,-10.58 10.81,-10.69 C10.81,-10.69 11.42,-10.69 11.42,-10.69 C11.42,-10.69 11.77,-5.39 11.77,-5.39 C11.82,-5.44 11.01,-5.44 11.01,-5.44z "/></g><g id="_R_G_L_8_G" transform=" translate(21.7, 49.2) scale(0.55, 0.55) translate(0, 0)"><path id="_R_G_L_8_G_D_0_P_0" fill="#222222" fill-opacity="1" fill-rule="nonzero" d=" M11.01 -5.44 C9.7,-8.82 6.23,-11.04 1.84,-11.04 C-4.91,-11.04 -9.1,-6.6 -9.1,-0.5 C-9.1,6.1 -3.86,10.99 2.29,10.99 C5.47,10.99 9.4,9.98 12.17,5.6 C12.17,5.6 12.93,5.6 12.93,5.6 C12.43,7.26 11.32,9.53 10.36,10.94 C7.79,10.64 5.97,11.95 1.24,11.95 C-7.03,11.9 -12.93,7.01 -12.93,0.25 C-12.93,-6.85 -6.88,-11.95 1.59,-11.95 C6.68,-11.95 8.85,-10.48 10.11,-10.48 C10.56,-10.48 10.76,-10.58 10.81,-10.69 C10.81,-10.69 11.42,-10.69 11.42,-10.69 C11.42,-10.69 11.77,-5.39 11.77,-5.39 C11.82,-5.44 11.01,-5.44 11.01,-5.44z "/></g><g id="_R_G_L_7_G" transform=" translate(21.7, 36) scale(0.55, 0.55) translate(0, 0)"><path id="_R_G_L_7_G_D_0_P_0" fill="#222222" fill-opacity="1" fill-rule="nonzero" d=" M11.01 -5.44 C9.7,-8.82 6.23,-11.04 1.84,-11.04 C-4.91,-11.04 -9.1,-6.6 -9.1,-0.5 C-9.1,6.1 -3.86,10.99 2.29,10.99 C5.47,10.99 9.4,9.98 12.17,5.6 C12.17,5.6 12.93,5.6 12.93,5.6 C12.43,7.26 11.32,9.53 10.36,10.94 C7.79,10.64 5.97,11.95 1.24,11.95 C-7.03,11.9 -12.93,7.01 -12.93,0.25 C-12.93,-6.85 -6.88,-11.95 1.59,-11.95 C6.68,-11.95 8.85,-10.48 10.11,-10.48 C10.56,-10.48 10.76,-10.58 10.81,-10.69 C10.81,-10.69 11.42,-10.69 11.42,-10.69 C11.42,-10.69 11.77,-5.39 11.77,-5.39 C11.82,-5.44 11.01,-5.44 11.01,-5.44z "/></g><g id="_R_G_L_6_G" transform=" translate(21.7, 22.8) scale(0.55, 0.55) translate(0, 0)"><path id="_R_G_L_6_G_D_0_P_0" fill="#222222" fill-opacity="1" fill-rule="nonzero" d=" M11.01 -5.44 C9.7,-8.82 6.23,-11.04 1.84,-11.04 C-4.91,-11.04 -9.1,-6.6 -9.1,-0.5 C-9.1,6.1 -3.86,10.99 2.29,10.99 C5.47,10.99 9.4,9.98 12.17,5.6 C12.17,5.6 12.93,5.6 12.93,5.6 C12.43,7.26 11.32,9.53 10.36,10.94 C7.79,10.64 5.97,11.95 1.24,11.95 C-7.03,11.9 -12.93,7.01 -12.93,0.25 C-12.93,-6.85 -6.88,-11.95 1.59,-11.95 C6.68,-11.95 8.85,-10.48 10.11,-10.48 C10.56,-10.48 10.76,-10.58 10.81,-10.69 C10.81,-10.69 11.42,-10.69 11.42,-10.69 C11.42,-10.69 11.77,-5.39 11.77,-5.39 C11.82,-5.44 11.01,-5.44 11.01,-5.44z "/></g><g id="_R_G_L_5_G" transform=" translate(21.7, 9.6) scale(0.55, 0.55) translate(0, 0)"><path id="_R_G_L_5_G_D_0_P_0" fill="#222222" fill-opacity="1" fill-rule="nonzero" d=" M11.01 -5.44 C9.7,-8.82 6.23,-11.04 1.84,-11.04 C-4.91,-11.04 -9.1,-6.6 -9.1,-0.5 C-9.1,6.1 -3.86,10.99 2.29,10.99 C5.47,10.99 9.4,9.98 12.17,5.6 C12.17,5.6 12.93,5.6 12.93,5.6 C12.43,7.26 11.32,9.53 10.36,10.94 C7.79,10.64 5.97,11.95 1.24,11.95 C-7.03,11.9 -12.93,7.01 -12.93,0.25 C-12.93,-6.85 -6.88,-11.95 1.59,-11.95 C6.68,-11.95 8.85,-10.48 10.11,-10.48 C10.56,-10.48 10.76,-10.58 10.81,-10.69 C10.81,-10.69 11.42,-10.69 11.42,-10.69 C11.42,-10.69 11.77,-5.39 11.77,-5.39 C11.82,-5.44 11.01,-5.44 11.01,-5.44z "/></g><g id="_R_G_L_4_G" transform=" translate(7.4, 62.4) scale(0.55, 0.55) translate(0, 0)"><path id="_R_G_L_4_G_D_0_P_0" fill="#222222" fill-opacity="1" fill-rule="nonzero" d=" M11.01 -5.44 C9.7,-8.82 6.23,-11.04 1.84,-11.04 C-4.91,-11.04 -9.1,-6.6 -9.1,-0.5 C-9.1,6.1 -3.86,10.99 2.29,10.99 C5.47,10.99 9.4,9.98 12.17,5.6 C12.17,5.6 12.93,5.6 12.93,5.6 C12.43,7.26 11.32,9.53 10.36,10.94 C7.79,10.64 5.97,11.95 1.24,11.95 C-7.03,11.9 -12.93,7.01 -12.93,0.25 C-12.93,-6.85 -6.88,-11.95 1.59,-11.95 C6.68,-11.95 8.85,-10.48 10.11,-10.48 C10.56,-10.48 10.76,-10.58 10.81,-10.69 C10.81,-10.69 11.42,-10.69 11.42,-10.69 C11.42,-10.69 11.77,-5.39 11.77,-5.39 C11.82,-5.44 11.01,-5.44 11.01,-5.44z "/></g><g id="_R_G_L_3_G" transform=" translate(7.4, 49.2) scale(0.55, 0.55) translate(0, 0)"><path id="_R_G_L_3_G_D_0_P_0" fill="#222222" fill-opacity="1" fill-rule="nonzero" d=" M11.01 -5.44 C9.7,-8.82 6.23,-11.04 1.84,-11.04 C-4.91,-11.04 -9.1,-6.6 -9.1,-0.5 C-9.1,6.1 -3.86,10.99 2.29,10.99 C5.47,10.99 9.4,9.98 12.17,5.6 C12.17,5.6 12.93,5.6 12.93,5.6 C12.43,7.26 11.32,9.53 10.36,10.94 C7.79,10.64 5.97,11.95 1.24,11.95 C-7.03,11.9 -12.93,7.01 -12.93,0.25 C-12.93,-6.85 -6.88,-11.95 1.59,-11.95 C6.68,-11.95 8.85,-10.48 10.11,-10.48 C10.56,-10.48 10.76,-10.58 10.81,-10.69 C10.81,-10.69 11.42,-10.69 11.42,-10.69 C11.42,-10.69 11.77,-5.39 11.77,-5.39 C11.82,-5.44 11.01,-5.44 11.01,-5.44z "/></g><g id="_R_G_L_2_G" transform=" translate(7.4, 36) scale(0.55, 0.55) translate(0, 0)"><path id="_R_G_L_2_G_D_0_P_0" fill="#222222" fill-opacity="1" fill-rule="nonzero" d=" M11.01 -5.44 C9.7,-8.82 6.23,-11.04 1.84,-11.04 C-4.91,-11.04 -9.1,-6.6 -9.1,-0.5 C-9.1,6.1 -3.86,10.99 2.29,10.99 C5.47,10.99 9.4,9.98 12.17,5.6 C12.17,5.6 12.93,5.6 12.93,5.6 C12.43,7.26 11.32,9.53 10.36,10.94 C7.79,10.64 5.97,11.95 1.24,11.95 C-7.03,11.9 -12.93,7.01 -12.93,0.25 C-12.93,-6.85 -6.88,-11.95 1.59,-11.95 C6.68,-11.95 8.85,-10.48 10.11,-10.48 C10.56,-10.48 10.76,-10.58 10.81,-10.69 C10.81,-10.69 11.42,-10.69 11.42,-10.69 C11.42,-10.69 11.77,-5.39 11.77,-5.39 C11.82,-5.44 11.01,-5.44 11.01,-5.44z "/></g><g id="_R_G_L_1_G" transform=" translate(7.4, 22.8) scale(0.55, 0.55) translate(0, 0)"><path id="_R_G_L_1_G_D_0_P_0" fill="#222222" fill-opacity="1" fill-rule="nonzero" d=" M11.01 -5.44 C9.7,-8.82 6.23,-11.04 1.84,-11.04 C-4.91,-11.04 -9.1,-6.6 -9.1,-0.5 C-9.1,6.1 -3.86,10.99 2.29,10.99 C5.47,10.99 9.4,9.98 12.17,5.6 C12.17,5.6 12.93,5.6 12.93,5.6 C12.43,7.26 11.32,9.53 10.36,10.94 C7.79,10.64 5.97,11.95 1.24,11.95 C-7.03,11.9 -12.93,7.01 -12.93,0.25 C-12.93,-6.85 -6.88,-11.95 1.59,-11.95 C6.68,-11.95 8.85,-10.48 10.11,-10.48 C10.56,-10.48 10.76,-10.58 10.81,-10.69 C10.81,-10.69 11.42,-10.69 11.42,-10.69 C11.42,-10.69 11.77,-5.39 11.77,-5.39 C11.82,-5.44 11.01,-5.44 11.01,-5.44z "/></g><g id="_R_G_L_0_G" transform=" translate(7.4, 9.6) scale(0.55, 0.55) translate(0, 0)"><path id="_R_G_L_0_G_D_0_P_0" fill="#222222" fill-opacity="1" fill-rule="nonzero" d=" M11.01 -5.44 C9.7,-8.82 6.23,-11.04 1.84,-11.04 C-4.91,-11.04 -9.1,-6.6 -9.1,-0.5 C-9.1,6.1 -3.86,10.99 2.29,10.99 C5.47,10.99 9.4,9.98 12.17,5.6 C12.17,5.6 12.93,5.6 12.93,5.6 C12.43,7.26 11.32,9.53 10.36,10.94 C7.79,10.64 5.97,11.95 1.24,11.95 C-7.03,11.9 -12.93,7.01 -12.93,0.25 C-12.93,-6.85 -6.88,-11.95 1.59,-11.95 C6.68,-11.95 8.85,-10.48 10.11,-10.48 C10.56,-10.48 10.76,-10.58 10.81,-10.69 C10.81,-10.69 11.42,-10.69 11.42,-10.69 C11.42,-10.69 11.77,-5.39 11.77,-5.39 C11.82,-5.44 11.01,-5.44 11.01,-5.44z "/></g></g><g id="time_group"/></svg>