<svg fill="none" height="21" viewBox="0 0 21 21" width="21" xmlns="http://www.w3.org/2000/svg" aria-hidden="true" aria-labelledby="ico_search"><title id="ico_search">ico search</title><path d="m8.30899 1.39366c4.00791 0 7.33151 3.34393 7.33151 7.3763 0 1.77034-.5866 3.44224-1.7596 4.72084l-.391.4917-.4888.3935c-1.2708 1.1802-2.9326 1.7703-4.69211 1.7703-4.00786 0-7.331462-3.344-7.331462-7.37634 0-4.03237 3.323602-7.3763 7.331462-7.3763zm0-.983504c-4.59438 0-8.30899 3.737324-8.30899 8.359804 0 4.62244 3.71461 8.35984 8.30899 8.35984 2.05281 0 3.91011-.6885 5.37641-1.967l5.3764 5.4092 1.0753-1.0818-5.4742-5.3109c1.1731-1.4753 1.9551-3.344 1.9551-5.40934 0-4.62248-3.7146-8.359804-8.30901-8.359804z" fill="#fff"/></svg>