<svg height="70" viewBox="0 0 512 512" width="70" xmlns="http://www.w3.org/2000/svg" aria-hidden="true" aria-labelledby="search"><title id="search">ico magnifying glass</title><path d="m503.847 432.949-89.897-89.897c-.002-.002-.003-.003-.006-.006s-.003-.003-.006-.006l-32.135-32.135c-10.855-10.856-28.522-10.86-39.381 0l-3.939 3.939-13.571-13.571c26.587-31.878 42.607-72.861 42.607-117.519-.002-101.322-82.434-183.754-183.757-183.754s-183.753 82.432-183.753 183.754 82.43 183.754 183.753 183.754c44.658 0 85.641-16.02 117.519-42.606l13.571 13.57-3.94 3.94c-10.854 10.857-10.854 28.523.002 39.381l122.043 122.043c10.881 10.883 28.499 10.886 39.383.001l31.506-31.506c10.859-10.857 10.859-28.523.001-39.382zm-320.085-98.858c-82.896 0-150.337-67.441-150.337-150.337s67.441-150.337 150.337-150.337 150.338 67.441 150.338 150.337-67.442 150.337-150.338 150.337zm154.72 28.012 23.629-23.629 16.388 16.388-23.629 23.629zm114.167 114.166-74.15-74.15 23.629-23.629 74.15 74.15z"/><path d="m183.76 66.835c-9.228 0-16.709 7.481-16.709 16.709s7.481 16.709 16.709 16.709c46.045 0 83.505 37.457 83.505 83.5 0 9.228 7.481 16.709 16.709 16.709s16.709-7.481 16.709-16.709c0-64.469-52.452-116.918-116.923-116.918z"/></svg>